<?xml version="1.0" encoding="utf-8"?>
<!-- Generator: Adobe Illustrator 23.0.0, SVG Export Plug-In . SVG Version: 6.00 Build 0)  -->
<svg version="1.1" id="Layer_1" xmlns="http://www.w3.org/2000/svg" xmlns:xlink="http://www.w3.org/1999/xlink" x="0px" y="0px"
	 viewBox="0 0 283.46 283.46" style="enable-background:new 0 0 283.46 283.46;" xml:space="preserve">
<style type="text/css">
	.st0{fill:none;stroke:#FFFFFF;stroke-width:5;stroke-miterlimit:10;}
</style>
<path class="st0" d="M115.84,55.48v-9.6c0,0-0.24-5.28,4.56-5.28s50.4,0,50.4,0s20.4-2.4,37.68,16.32s11.76,41.76,11.76,41.76
	s-2.64,15.84-12.96,24c-10.32,8.16-17.04,12.96-31.44,14.88c-9.36,1.44-30.24,0-30.24,0l-1.2,44.16c0,0,0,5.04-4.32,5.04
	c-4.32,0-18.72,0-18.72,0s-5.52,0.72-5.52-6s0-107.76,0-107.76s0-6.48,3.84-6.48c3.84,0,52.08,0,52.08,0s16.56,1.2,19.68,18
	c3.12,16.8-9.12,24.96-15.12,25.68s-35.76-0.24-37.44,0c-1.68,0.24-26.88,1.92-37.92,29.76s0.96,53.76,14.64,63.84
	s46.08,19.86,64.8-7.44c8.93-13.02,6.24-12.96,13.92-12.96c7.68,0,18.96-0.24,18.96-0.24s6.48,0.24,3.12,9.12
	c-1.64,4.34-5.7,12.41-9.41,19.53c-6.24,11.96-16.73,21.19-29.47,25.62c-7.99,2.78-16.91,5.04-24.78,5.97
	c-18.18,2.16-91.19,0.48-92.34-77.76c-0.45-30.72,13.92-53.76,40.56-68.64c26.64-14.88,64.32-1.44,78.24,19.2
	c10.8,15.84,11.04,23.04,11.04,23.04l23.04-0.24c0,0,6.48,0.48,3.84-7.2c-2.64-7.68-15.84-48.96-69.84-52.08
	c-1.44,0.24-3.24,0-3.18,4.08c0.06,4.08,0,24.96,0,24.96"/>
</svg>
